<mxfile host="app.diagrams.net" agent="Mozilla/5.0 (X11; CrOS x86_64 14541.0.0) AppleWebKit/537.36 (KHTML, like Gecko) Chrome/130.0.0.0 Safari/537.36" version="24.8.3">
  <diagram id="C5RBs43oDa-KdzZeNtuy" name="Page-1">
    <mxGraphModel dx="2261" dy="749" grid="1" gridSize="10" guides="1" tooltips="1" connect="1" arrows="1" fold="1" page="1" pageScale="1" pageWidth="827" pageHeight="1169" math="0" shadow="0">
      <root>
        <mxCell id="WIyWlLk6GJQsqaUBKTNV-0" />
        <mxCell id="WIyWlLk6GJQsqaUBKTNV-1" parent="WIyWlLk6GJQsqaUBKTNV-0" />
        <mxCell id="zkfFHV4jXpPFQw0GAbJ--0" value="Car" style="swimlane;fontStyle=1;align=center;verticalAlign=top;childLayout=stackLayout;horizontal=1;startSize=26;horizontalStack=0;resizeParent=1;resizeLast=0;collapsible=1;marginBottom=0;rounded=0;shadow=0;strokeWidth=1;" parent="WIyWlLk6GJQsqaUBKTNV-1" vertex="1">
          <mxGeometry x="300" y="40" width="160" height="164" as="geometry">
            <mxRectangle x="300" y="40" width="160" height="26" as="alternateBounds" />
          </mxGeometry>
        </mxCell>
        <mxCell id="8t5O6EoHrvJ2qPUYRxW4-82" value="-canInterface: string" style="text;align=left;verticalAlign=top;spacingLeft=4;spacingRight=4;overflow=hidden;rotatable=0;points=[[0,0.5],[1,0.5]];portConstraint=eastwest;" parent="zkfFHV4jXpPFQw0GAbJ--0" vertex="1">
          <mxGeometry y="26" width="160" height="26" as="geometry" />
        </mxCell>
        <mxCell id="zkfFHV4jXpPFQw0GAbJ--3" value="-dataStoragePath: string" style="text;align=left;verticalAlign=top;spacingLeft=4;spacingRight=4;overflow=hidden;rotatable=0;points=[[0,0.5],[1,0.5]];portConstraint=eastwest;rounded=0;shadow=0;html=0;" parent="zkfFHV4jXpPFQw0GAbJ--0" vertex="1">
          <mxGeometry y="52" width="160" height="26" as="geometry" />
        </mxCell>
        <mxCell id="zkfFHV4jXpPFQw0GAbJ--4" value="" style="line;html=1;strokeWidth=1;align=left;verticalAlign=middle;spacingTop=-1;spacingLeft=3;spacingRight=3;rotatable=0;labelPosition=right;points=[];portConstraint=eastwest;" parent="zkfFHV4jXpPFQw0GAbJ--0" vertex="1">
          <mxGeometry y="78" width="160" height="8" as="geometry" />
        </mxCell>
        <mxCell id="zkfFHV4jXpPFQw0GAbJ--5" value="-init()" style="text;align=left;verticalAlign=top;spacingLeft=4;spacingRight=4;overflow=hidden;rotatable=0;points=[[0,0.5],[1,0.5]];portConstraint=eastwest;" parent="zkfFHV4jXpPFQw0GAbJ--0" vertex="1">
          <mxGeometry y="86" width="160" height="26" as="geometry" />
        </mxCell>
        <mxCell id="8t5O6EoHrvJ2qPUYRxW4-0" value="-execute()" style="text;align=left;verticalAlign=top;spacingLeft=4;spacingRight=4;overflow=hidden;rotatable=0;points=[[0,0.5],[1,0.5]];portConstraint=eastwest;" parent="zkfFHV4jXpPFQw0GAbJ--0" vertex="1">
          <mxGeometry y="112" width="160" height="26" as="geometry" />
        </mxCell>
        <mxCell id="8t5O6EoHrvJ2qPUYRxW4-6" value="-end()" style="text;align=left;verticalAlign=top;spacingLeft=4;spacingRight=4;overflow=hidden;rotatable=0;points=[[0,0.5],[1,0.5]];portConstraint=eastwest;" parent="zkfFHV4jXpPFQw0GAbJ--0" vertex="1">
          <mxGeometry y="138" width="160" height="26" as="geometry" />
        </mxCell>
        <mxCell id="8t5O6EoHrvJ2qPUYRxW4-7" value="CarContainer" style="swimlane;fontStyle=1;align=center;verticalAlign=top;childLayout=stackLayout;horizontal=1;startSize=26;horizontalStack=0;resizeParent=1;resizeParentMax=0;resizeLast=0;collapsible=1;marginBottom=0;whiteSpace=wrap;html=1;" parent="WIyWlLk6GJQsqaUBKTNV-1" vertex="1">
          <mxGeometry x="280" y="288" width="160" height="60" as="geometry" />
        </mxCell>
        <mxCell id="8t5O6EoHrvJ2qPUYRxW4-9" value="" style="line;strokeWidth=1;fillColor=none;align=left;verticalAlign=middle;spacingTop=-1;spacingLeft=3;spacingRight=3;rotatable=0;labelPosition=right;points=[];portConstraint=eastwest;strokeColor=inherit;" parent="8t5O6EoHrvJ2qPUYRxW4-7" vertex="1">
          <mxGeometry y="26" width="160" height="8" as="geometry" />
        </mxCell>
        <mxCell id="8t5O6EoHrvJ2qPUYRxW4-10" value="+CarContainer()" style="text;strokeColor=none;fillColor=none;align=left;verticalAlign=top;spacingLeft=4;spacingRight=4;overflow=hidden;rotatable=0;points=[[0,0.5],[1,0.5]];portConstraint=eastwest;whiteSpace=wrap;html=1;" parent="8t5O6EoHrvJ2qPUYRxW4-7" vertex="1">
          <mxGeometry y="34" width="160" height="26" as="geometry" />
        </mxCell>
        <mxCell id="8t5O6EoHrvJ2qPUYRxW4-15" value="" style="endArrow=diamondThin;endFill=1;endSize=24;html=1;rounded=0;exitX=0.5;exitY=0;exitDx=0;exitDy=0;edgeStyle=orthogonalEdgeStyle;entryX=0.291;entryY=0.962;entryDx=0;entryDy=0;entryPerimeter=0;" parent="WIyWlLk6GJQsqaUBKTNV-1" source="8t5O6EoHrvJ2qPUYRxW4-7" target="8t5O6EoHrvJ2qPUYRxW4-6" edge="1">
          <mxGeometry width="160" relative="1" as="geometry">
            <mxPoint x="735.6799999999998" y="372.41999999999996" as="sourcePoint" />
            <mxPoint x="430" y="200" as="targetPoint" />
          </mxGeometry>
        </mxCell>
        <mxCell id="8t5O6EoHrvJ2qPUYRxW4-134" value="1" style="edgeLabel;html=1;align=center;verticalAlign=middle;resizable=0;points=[];" parent="8t5O6EoHrvJ2qPUYRxW4-15" vertex="1" connectable="0">
          <mxGeometry x="0.8001" relative="1" as="geometry">
            <mxPoint as="offset" />
          </mxGeometry>
        </mxCell>
        <mxCell id="8t5O6EoHrvJ2qPUYRxW4-16" value="ProcedureScheduler" style="swimlane;fontStyle=1;align=center;verticalAlign=top;childLayout=stackLayout;horizontal=1;startSize=26;horizontalStack=0;resizeParent=1;resizeParentMax=0;resizeLast=0;collapsible=1;marginBottom=0;whiteSpace=wrap;html=1;" parent="WIyWlLk6GJQsqaUBKTNV-1" vertex="1">
          <mxGeometry x="520" y="297" width="260" height="190" as="geometry" />
        </mxCell>
        <mxCell id="8t5O6EoHrvJ2qPUYRxW4-22" value="-totalProcedures: map" style="text;strokeColor=none;fillColor=none;align=left;verticalAlign=top;spacingLeft=4;spacingRight=4;overflow=hidden;rotatable=0;points=[[0,0.5],[1,0.5]];portConstraint=eastwest;whiteSpace=wrap;html=1;" parent="8t5O6EoHrvJ2qPUYRxW4-16" vertex="1">
          <mxGeometry y="26" width="260" height="26" as="geometry" />
        </mxCell>
        <mxCell id="8t5O6EoHrvJ2qPUYRxW4-17" value="&lt;div&gt;-activeProcedures: map&lt;/div&gt;" style="text;strokeColor=none;fillColor=none;align=left;verticalAlign=top;spacingLeft=4;spacingRight=4;overflow=hidden;rotatable=0;points=[[0,0.5],[1,0.5]];portConstraint=eastwest;whiteSpace=wrap;html=1;" parent="8t5O6EoHrvJ2qPUYRxW4-16" vertex="1">
          <mxGeometry y="52" width="260" height="26" as="geometry" />
        </mxCell>
        <mxCell id="8t5O6EoHrvJ2qPUYRxW4-18" value="" style="line;strokeWidth=1;fillColor=none;align=left;verticalAlign=middle;spacingTop=-1;spacingLeft=3;spacingRight=3;rotatable=0;labelPosition=right;points=[];portConstraint=eastwest;strokeColor=inherit;" parent="8t5O6EoHrvJ2qPUYRxW4-16" vertex="1">
          <mxGeometry y="78" width="260" height="8" as="geometry" />
        </mxCell>
        <mxCell id="8t5O6EoHrvJ2qPUYRxW4-19" value="+execute()" style="text;strokeColor=none;fillColor=none;align=left;verticalAlign=top;spacingLeft=4;spacingRight=4;overflow=hidden;rotatable=0;points=[[0,0.5],[1,0.5]];portConstraint=eastwest;whiteSpace=wrap;html=1;" parent="8t5O6EoHrvJ2qPUYRxW4-16" vertex="1">
          <mxGeometry y="86" width="260" height="26" as="geometry" />
        </mxCell>
        <mxCell id="8t5O6EoHrvJ2qPUYRxW4-23" value="+end()" style="text;strokeColor=none;fillColor=none;align=left;verticalAlign=top;spacingLeft=4;spacingRight=4;overflow=hidden;rotatable=0;points=[[0,0.5],[1,0.5]];portConstraint=eastwest;whiteSpace=wrap;html=1;" parent="8t5O6EoHrvJ2qPUYRxW4-16" vertex="1">
          <mxGeometry y="112" width="260" height="26" as="geometry" />
        </mxCell>
        <mxCell id="8t5O6EoHrvJ2qPUYRxW4-24" value="+bindCommand(in procedure, in command)" style="text;strokeColor=none;fillColor=none;align=left;verticalAlign=top;spacingLeft=4;spacingRight=4;overflow=hidden;rotatable=0;points=[[0,0.5],[1,0.5]];portConstraint=eastwest;whiteSpace=wrap;html=1;" parent="8t5O6EoHrvJ2qPUYRxW4-16" vertex="1">
          <mxGeometry y="138" width="260" height="26" as="geometry" />
        </mxCell>
        <mxCell id="8t5O6EoHrvJ2qPUYRxW4-25" value="+receiveCommand(in command)" style="text;strokeColor=none;fillColor=none;align=left;verticalAlign=top;spacingLeft=4;spacingRight=4;overflow=hidden;rotatable=0;points=[[0,0.5],[1,0.5]];portConstraint=eastwest;whiteSpace=wrap;html=1;" parent="8t5O6EoHrvJ2qPUYRxW4-16" vertex="1">
          <mxGeometry y="164" width="260" height="26" as="geometry" />
        </mxCell>
        <mxCell id="8t5O6EoHrvJ2qPUYRxW4-26" value="" style="endArrow=diamondThin;endFill=1;endSize=24;html=1;rounded=0;exitX=0.5;exitY=0;exitDx=0;exitDy=0;edgeStyle=orthogonalEdgeStyle;entryX=0.565;entryY=1;entryDx=0;entryDy=0;entryPerimeter=0;" parent="WIyWlLk6GJQsqaUBKTNV-1" source="8t5O6EoHrvJ2qPUYRxW4-16" target="8t5O6EoHrvJ2qPUYRxW4-6" edge="1">
          <mxGeometry width="160" relative="1" as="geometry">
            <mxPoint x="434.03999999999996" y="440.75000000000006" as="sourcePoint" />
            <mxPoint x="520" y="177" as="targetPoint" />
          </mxGeometry>
        </mxCell>
        <mxCell id="8t5O6EoHrvJ2qPUYRxW4-131" value="1" style="edgeLabel;html=1;align=center;verticalAlign=middle;resizable=0;points=[];" parent="8t5O6EoHrvJ2qPUYRxW4-26" vertex="1" connectable="0">
          <mxGeometry x="0.8046" relative="1" as="geometry">
            <mxPoint as="offset" />
          </mxGeometry>
        </mxCell>
        <mxCell id="8t5O6EoHrvJ2qPUYRxW4-36" value="CanDispatcher" style="swimlane;fontStyle=1;align=center;verticalAlign=top;childLayout=stackLayout;horizontal=1;startSize=26;horizontalStack=0;resizeParent=1;resizeParentMax=0;resizeLast=0;collapsible=1;marginBottom=0;whiteSpace=wrap;html=1;" parent="WIyWlLk6GJQsqaUBKTNV-1" vertex="1">
          <mxGeometry x="-620" y="280" width="240" height="222" as="geometry" />
        </mxCell>
        <mxCell id="8t5O6EoHrvJ2qPUYRxW4-41" value="-canSocketFD" style="text;strokeColor=none;fillColor=none;align=left;verticalAlign=top;spacingLeft=4;spacingRight=4;overflow=hidden;rotatable=0;points=[[0,0.5],[1,0.5]];portConstraint=eastwest;whiteSpace=wrap;html=1;" parent="8t5O6EoHrvJ2qPUYRxW4-36" vertex="1">
          <mxGeometry y="26" width="240" height="26" as="geometry" />
        </mxCell>
        <mxCell id="8t5O6EoHrvJ2qPUYRxW4-37" value="-a lot more fields..." style="text;strokeColor=none;fillColor=none;align=left;verticalAlign=top;spacingLeft=4;spacingRight=4;overflow=hidden;rotatable=0;points=[[0,0.5],[1,0.5]];portConstraint=eastwest;whiteSpace=wrap;html=1;" parent="8t5O6EoHrvJ2qPUYRxW4-36" vertex="1">
          <mxGeometry y="52" width="240" height="26" as="geometry" />
        </mxCell>
        <mxCell id="8t5O6EoHrvJ2qPUYRxW4-38" value="" style="line;strokeWidth=1;fillColor=none;align=left;verticalAlign=middle;spacingTop=-1;spacingLeft=3;spacingRight=3;rotatable=0;labelPosition=right;points=[];portConstraint=eastwest;strokeColor=inherit;" parent="8t5O6EoHrvJ2qPUYRxW4-36" vertex="1">
          <mxGeometry y="78" width="240" height="8" as="geometry" />
        </mxCell>
        <mxCell id="8t5O6EoHrvJ2qPUYRxW4-39" value="+ execute()" style="text;strokeColor=none;fillColor=none;align=left;verticalAlign=top;spacingLeft=4;spacingRight=4;overflow=hidden;rotatable=0;points=[[0,0.5],[1,0.5]];portConstraint=eastwest;whiteSpace=wrap;html=1;" parent="8t5O6EoHrvJ2qPUYRxW4-36" vertex="1">
          <mxGeometry y="86" width="240" height="26" as="geometry" />
        </mxCell>
        <mxCell id="8t5O6EoHrvJ2qPUYRxW4-40" value="+ sendCanCommand&lt;div&gt;(in deviceID, in data[],&amp;nbsp;&lt;span style=&quot;background-color: initial;&quot;&gt;in callback)&lt;/span&gt;&lt;/div&gt;" style="text;strokeColor=none;fillColor=none;align=left;verticalAlign=top;spacingLeft=4;spacingRight=4;overflow=hidden;rotatable=0;points=[[0,0.5],[1,0.5]];portConstraint=eastwest;whiteSpace=wrap;html=1;" parent="8t5O6EoHrvJ2qPUYRxW4-36" vertex="1">
          <mxGeometry y="112" width="240" height="38" as="geometry" />
        </mxCell>
        <mxCell id="8t5O6EoHrvJ2qPUYRxW4-42" value="-openCanInterface(in interface)" style="text;strokeColor=none;fillColor=none;align=left;verticalAlign=top;spacingLeft=4;spacingRight=4;overflow=hidden;rotatable=0;points=[[0,0.5],[1,0.5]];portConstraint=eastwest;whiteSpace=wrap;html=1;" parent="8t5O6EoHrvJ2qPUYRxW4-36" vertex="1">
          <mxGeometry y="150" width="240" height="24" as="geometry" />
        </mxCell>
        <mxCell id="8t5O6EoHrvJ2qPUYRxW4-44" value="-readCanInterface()" style="text;strokeColor=none;fillColor=none;align=left;verticalAlign=top;spacingLeft=4;spacingRight=4;overflow=hidden;rotatable=0;points=[[0,0.5],[1,0.5]];portConstraint=eastwest;whiteSpace=wrap;html=1;" parent="8t5O6EoHrvJ2qPUYRxW4-36" vertex="1">
          <mxGeometry y="174" width="240" height="24" as="geometry" />
        </mxCell>
        <mxCell id="8t5O6EoHrvJ2qPUYRxW4-45" value="-resetCanInterface(in interface)" style="text;strokeColor=none;fillColor=none;align=left;verticalAlign=top;spacingLeft=4;spacingRight=4;overflow=hidden;rotatable=0;points=[[0,0.5],[1,0.5]];portConstraint=eastwest;whiteSpace=wrap;html=1;" parent="8t5O6EoHrvJ2qPUYRxW4-36" vertex="1">
          <mxGeometry y="198" width="240" height="24" as="geometry" />
        </mxCell>
        <mxCell id="8t5O6EoHrvJ2qPUYRxW4-46" value="" style="endArrow=diamondThin;endFill=1;endSize=24;html=1;rounded=0;entryX=0.43;entryY=1.008;entryDx=0;entryDy=0;exitX=0.458;exitY=0.001;exitDx=0;exitDy=0;edgeStyle=orthogonalEdgeStyle;entryPerimeter=0;exitPerimeter=0;" parent="WIyWlLk6GJQsqaUBKTNV-1" source="8t5O6EoHrvJ2qPUYRxW4-36" target="8t5O6EoHrvJ2qPUYRxW4-6" edge="1">
          <mxGeometry width="160" relative="1" as="geometry">
            <mxPoint x="283" y="368" as="sourcePoint" />
            <mxPoint x="230" y="150" as="targetPoint" />
          </mxGeometry>
        </mxCell>
        <mxCell id="8t5O6EoHrvJ2qPUYRxW4-132" value="1" style="edgeLabel;html=1;align=center;verticalAlign=middle;resizable=0;points=[];" parent="8t5O6EoHrvJ2qPUYRxW4-46" vertex="1" connectable="0">
          <mxGeometry x="0.5411" y="1" relative="1" as="geometry">
            <mxPoint as="offset" />
          </mxGeometry>
        </mxCell>
        <mxCell id="8t5O6EoHrvJ2qPUYRxW4-50" value="DataStorage" style="swimlane;fontStyle=1;align=center;verticalAlign=top;childLayout=stackLayout;horizontal=1;startSize=26;horizontalStack=0;resizeParent=1;resizeParentMax=0;resizeLast=0;collapsible=1;marginBottom=0;whiteSpace=wrap;html=1;" parent="WIyWlLk6GJQsqaUBKTNV-1" vertex="1">
          <mxGeometry x="-320" y="281" width="230" height="320" as="geometry" />
        </mxCell>
        <mxCell id="8t5O6EoHrvJ2qPUYRxW4-74" value="-db: database handle" style="text;strokeColor=none;fillColor=none;align=left;verticalAlign=top;spacingLeft=4;spacingRight=4;overflow=hidden;rotatable=0;points=[[0,0.5],[1,0.5]];portConstraint=eastwest;whiteSpace=wrap;html=1;" parent="8t5O6EoHrvJ2qPUYRxW4-50" vertex="1">
          <mxGeometry y="26" width="230" height="26" as="geometry" />
        </mxCell>
        <mxCell id="8t5O6EoHrvJ2qPUYRxW4-54" value="-currentSessionID: int" style="text;strokeColor=none;fillColor=none;align=left;verticalAlign=top;spacingLeft=4;spacingRight=4;overflow=hidden;rotatable=0;points=[[0,0.5],[1,0.5]];portConstraint=eastwest;whiteSpace=wrap;html=1;" parent="8t5O6EoHrvJ2qPUYRxW4-50" vertex="1">
          <mxGeometry y="52" width="230" height="26" as="geometry" />
        </mxCell>
        <mxCell id="8t5O6EoHrvJ2qPUYRxW4-51" value="-currentTimestamp: float" style="text;strokeColor=none;fillColor=none;align=left;verticalAlign=top;spacingLeft=4;spacingRight=4;overflow=hidden;rotatable=0;points=[[0,0.5],[1,0.5]];portConstraint=eastwest;whiteSpace=wrap;html=1;" parent="8t5O6EoHrvJ2qPUYRxW4-50" vertex="1">
          <mxGeometry y="78" width="230" height="26" as="geometry" />
        </mxCell>
        <mxCell id="8t5O6EoHrvJ2qPUYRxW4-52" value="" style="line;strokeWidth=1;fillColor=none;align=left;verticalAlign=middle;spacingTop=-1;spacingLeft=3;spacingRight=3;rotatable=0;labelPosition=right;points=[];portConstraint=eastwest;strokeColor=inherit;" parent="8t5O6EoHrvJ2qPUYRxW4-50" vertex="1">
          <mxGeometry y="104" width="230" height="8" as="geometry" />
        </mxCell>
        <mxCell id="8t5O6EoHrvJ2qPUYRxW4-53" value="+startNewSession(in sessionName)" style="text;strokeColor=none;fillColor=none;align=left;verticalAlign=top;spacingLeft=4;spacingRight=4;overflow=hidden;rotatable=0;points=[[0,0.5],[1,0.5]];portConstraint=eastwest;whiteSpace=wrap;html=1;" parent="8t5O6EoHrvJ2qPUYRxW4-50" vertex="1">
          <mxGeometry y="112" width="230" height="26" as="geometry" />
        </mxCell>
        <mxCell id="8t5O6EoHrvJ2qPUYRxW4-55" value="+endCurrentSession()" style="text;strokeColor=none;fillColor=none;align=left;verticalAlign=top;spacingLeft=4;spacingRight=4;overflow=hidden;rotatable=0;points=[[0,0.5],[1,0.5]];portConstraint=eastwest;whiteSpace=wrap;html=1;" parent="8t5O6EoHrvJ2qPUYRxW4-50" vertex="1">
          <mxGeometry y="138" width="230" height="26" as="geometry" />
        </mxCell>
        <mxCell id="8t5O6EoHrvJ2qPUYRxW4-56" value="+execute(timestamp)" style="text;strokeColor=none;fillColor=none;align=left;verticalAlign=top;spacingLeft=4;spacingRight=4;overflow=hidden;rotatable=0;points=[[0,0.5],[1,0.5]];portConstraint=eastwest;whiteSpace=wrap;html=1;" parent="8t5O6EoHrvJ2qPUYRxW4-50" vertex="1">
          <mxGeometry y="164" width="230" height="26" as="geometry" />
        </mxCell>
        <mxCell id="8t5O6EoHrvJ2qPUYRxW4-57" value="+getData() not implemented yet" style="text;strokeColor=none;fillColor=none;align=left;verticalAlign=top;spacingLeft=4;spacingRight=4;overflow=hidden;rotatable=0;points=[[0,0.5],[1,0.5]];portConstraint=eastwest;whiteSpace=wrap;html=1;" parent="8t5O6EoHrvJ2qPUYRxW4-50" vertex="1">
          <mxGeometry y="190" width="230" height="26" as="geometry" />
        </mxCell>
        <mxCell id="8t5O6EoHrvJ2qPUYRxW4-58" value="+storeData(in data, in dataType)" style="text;strokeColor=none;fillColor=none;align=left;verticalAlign=top;spacingLeft=4;spacingRight=4;overflow=hidden;rotatable=0;points=[[0,0.5],[1,0.5]];portConstraint=eastwest;whiteSpace=wrap;html=1;" parent="8t5O6EoHrvJ2qPUYRxW4-50" vertex="1">
          <mxGeometry y="216" width="230" height="26" as="geometry" />
        </mxCell>
        <mxCell id="8t5O6EoHrvJ2qPUYRxW4-59" value="-setupDatabase(in path)" style="text;strokeColor=none;fillColor=none;align=left;verticalAlign=top;spacingLeft=4;spacingRight=4;overflow=hidden;rotatable=0;points=[[0,0.5],[1,0.5]];portConstraint=eastwest;whiteSpace=wrap;html=1;" parent="8t5O6EoHrvJ2qPUYRxW4-50" vertex="1">
          <mxGeometry y="242" width="230" height="26" as="geometry" />
        </mxCell>
        <mxCell id="8t5O6EoHrvJ2qPUYRxW4-60" value="-setupDataTypes()" style="text;strokeColor=none;fillColor=none;align=left;verticalAlign=top;spacingLeft=4;spacingRight=4;overflow=hidden;rotatable=0;points=[[0,0.5],[1,0.5]];portConstraint=eastwest;whiteSpace=wrap;html=1;" parent="8t5O6EoHrvJ2qPUYRxW4-50" vertex="1">
          <mxGeometry y="268" width="230" height="26" as="geometry" />
        </mxCell>
        <mxCell id="8t5O6EoHrvJ2qPUYRxW4-61" value="-updateDatabase()" style="text;strokeColor=none;fillColor=none;align=left;verticalAlign=top;spacingLeft=4;spacingRight=4;overflow=hidden;rotatable=0;points=[[0,0.5],[1,0.5]];portConstraint=eastwest;whiteSpace=wrap;html=1;" parent="8t5O6EoHrvJ2qPUYRxW4-50" vertex="1">
          <mxGeometry y="294" width="230" height="26" as="geometry" />
        </mxCell>
        <mxCell id="8t5O6EoHrvJ2qPUYRxW4-75" value="" style="endArrow=diamondThin;endFill=1;endSize=24;html=1;rounded=0;exitX=0.5;exitY=0;exitDx=0;exitDy=0;edgeStyle=orthogonalEdgeStyle;entryX=0.094;entryY=0.962;entryDx=0;entryDy=0;entryPerimeter=0;" parent="WIyWlLk6GJQsqaUBKTNV-1" source="8t5O6EoHrvJ2qPUYRxW4-50" target="8t5O6EoHrvJ2qPUYRxW4-6" edge="1">
          <mxGeometry width="160" relative="1" as="geometry">
            <mxPoint x="897" y="218" as="sourcePoint" />
            <mxPoint x="690" y="100" as="targetPoint" />
          </mxGeometry>
        </mxCell>
        <mxCell id="8t5O6EoHrvJ2qPUYRxW4-133" value="1" style="edgeLabel;html=1;align=center;verticalAlign=middle;resizable=0;points=[];" parent="8t5O6EoHrvJ2qPUYRxW4-75" vertex="1" connectable="0">
          <mxGeometry x="0.8911" y="1" relative="1" as="geometry">
            <mxPoint as="offset" />
          </mxGeometry>
        </mxCell>
        <mxCell id="8t5O6EoHrvJ2qPUYRxW4-90" value="CarLogger" style="swimlane;fontStyle=1;align=center;verticalAlign=top;childLayout=stackLayout;horizontal=1;startSize=26;horizontalStack=0;resizeParent=1;resizeParentMax=0;resizeLast=0;collapsible=1;marginBottom=0;whiteSpace=wrap;html=1;" parent="WIyWlLk6GJQsqaUBKTNV-1" vertex="1">
          <mxGeometry x="600" y="20" width="160" height="190" as="geometry" />
        </mxCell>
        <mxCell id="8t5O6EoHrvJ2qPUYRxW4-91" value="&lt;u&gt;-logFile: ofstream&lt;/u&gt;" style="text;strokeColor=none;fillColor=none;align=left;verticalAlign=top;spacingLeft=4;spacingRight=4;overflow=hidden;rotatable=0;points=[[0,0.5],[1,0.5]];portConstraint=eastwest;whiteSpace=wrap;html=1;" parent="8t5O6EoHrvJ2qPUYRxW4-90" vertex="1">
          <mxGeometry y="26" width="160" height="26" as="geometry" />
        </mxCell>
        <mxCell id="8t5O6EoHrvJ2qPUYRxW4-92" value="" style="line;strokeWidth=1;fillColor=none;align=left;verticalAlign=middle;spacingTop=-1;spacingLeft=3;spacingRight=3;rotatable=0;labelPosition=right;points=[];portConstraint=eastwest;strokeColor=inherit;" parent="8t5O6EoHrvJ2qPUYRxW4-90" vertex="1">
          <mxGeometry y="52" width="160" height="8" as="geometry" />
        </mxCell>
        <mxCell id="8t5O6EoHrvJ2qPUYRxW4-93" value="&lt;u&gt;+Initialize(in path)&lt;/u&gt;" style="text;strokeColor=none;fillColor=none;align=left;verticalAlign=top;spacingLeft=4;spacingRight=4;overflow=hidden;rotatable=0;points=[[0,0.5],[1,0.5]];portConstraint=eastwest;whiteSpace=wrap;html=1;" parent="8t5O6EoHrvJ2qPUYRxW4-90" vertex="1">
          <mxGeometry y="60" width="160" height="26" as="geometry" />
        </mxCell>
        <mxCell id="8t5O6EoHrvJ2qPUYRxW4-94" value="&lt;u&gt;+Log(in message)&lt;/u&gt;" style="text;strokeColor=none;fillColor=none;align=left;verticalAlign=top;spacingLeft=4;spacingRight=4;overflow=hidden;rotatable=0;points=[[0,0.5],[1,0.5]];portConstraint=eastwest;whiteSpace=wrap;html=1;" parent="8t5O6EoHrvJ2qPUYRxW4-90" vertex="1">
          <mxGeometry y="86" width="160" height="26" as="geometry" />
        </mxCell>
        <mxCell id="8t5O6EoHrvJ2qPUYRxW4-95" value="&lt;u&gt;+LogWarning(in message)&lt;/u&gt;" style="text;strokeColor=none;fillColor=none;align=left;verticalAlign=top;spacingLeft=4;spacingRight=4;overflow=hidden;rotatable=0;points=[[0,0.5],[1,0.5]];portConstraint=eastwest;whiteSpace=wrap;html=1;" parent="8t5O6EoHrvJ2qPUYRxW4-90" vertex="1">
          <mxGeometry y="112" width="160" height="26" as="geometry" />
        </mxCell>
        <mxCell id="8t5O6EoHrvJ2qPUYRxW4-96" value="&lt;u&gt;+LogError(in message)&lt;/u&gt;" style="text;strokeColor=none;fillColor=none;align=left;verticalAlign=top;spacingLeft=4;spacingRight=4;overflow=hidden;rotatable=0;points=[[0,0.5],[1,0.5]];portConstraint=eastwest;whiteSpace=wrap;html=1;" parent="8t5O6EoHrvJ2qPUYRxW4-90" vertex="1">
          <mxGeometry y="138" width="160" height="26" as="geometry" />
        </mxCell>
        <mxCell id="8t5O6EoHrvJ2qPUYRxW4-97" value="&lt;u&gt;+LogPanic(in message)&lt;/u&gt;" style="text;strokeColor=none;fillColor=none;align=left;verticalAlign=top;spacingLeft=4;spacingRight=4;overflow=hidden;rotatable=0;points=[[0,0.5],[1,0.5]];portConstraint=eastwest;whiteSpace=wrap;html=1;" parent="8t5O6EoHrvJ2qPUYRxW4-90" vertex="1">
          <mxGeometry y="164" width="160" height="26" as="geometry" />
        </mxCell>
        <mxCell id="8t5O6EoHrvJ2qPUYRxW4-121" value="IMU" style="swimlane;fontStyle=1;align=center;verticalAlign=top;childLayout=stackLayout;horizontal=1;startSize=26;horizontalStack=0;resizeParent=1;resizeParentMax=0;resizeLast=0;collapsible=1;marginBottom=0;whiteSpace=wrap;html=1;" parent="WIyWlLk6GJQsqaUBKTNV-1" vertex="1">
          <mxGeometry x="-70" y="851" width="160" height="86" as="geometry" />
        </mxCell>
        <mxCell id="8t5O6EoHrvJ2qPUYRxW4-122" value="+ field: type" style="text;strokeColor=none;fillColor=none;align=left;verticalAlign=top;spacingLeft=4;spacingRight=4;overflow=hidden;rotatable=0;points=[[0,0.5],[1,0.5]];portConstraint=eastwest;whiteSpace=wrap;html=1;" parent="8t5O6EoHrvJ2qPUYRxW4-121" vertex="1">
          <mxGeometry y="26" width="160" height="26" as="geometry" />
        </mxCell>
        <mxCell id="8t5O6EoHrvJ2qPUYRxW4-123" value="" style="line;strokeWidth=1;fillColor=none;align=left;verticalAlign=middle;spacingTop=-1;spacingLeft=3;spacingRight=3;rotatable=0;labelPosition=right;points=[];portConstraint=eastwest;strokeColor=inherit;" parent="8t5O6EoHrvJ2qPUYRxW4-121" vertex="1">
          <mxGeometry y="52" width="160" height="8" as="geometry" />
        </mxCell>
        <mxCell id="8t5O6EoHrvJ2qPUYRxW4-124" value="+ method(type): type" style="text;strokeColor=none;fillColor=none;align=left;verticalAlign=top;spacingLeft=4;spacingRight=4;overflow=hidden;rotatable=0;points=[[0,0.5],[1,0.5]];portConstraint=eastwest;whiteSpace=wrap;html=1;" parent="8t5O6EoHrvJ2qPUYRxW4-121" vertex="1">
          <mxGeometry y="60" width="160" height="26" as="geometry" />
        </mxCell>
        <mxCell id="8t5O6EoHrvJ2qPUYRxW4-127" value="Dash" style="swimlane;fontStyle=1;align=center;verticalAlign=top;childLayout=stackLayout;horizontal=1;startSize=26;horizontalStack=0;resizeParent=1;resizeParentMax=0;resizeLast=0;collapsible=1;marginBottom=0;whiteSpace=wrap;html=1;" parent="WIyWlLk6GJQsqaUBKTNV-1" vertex="1">
          <mxGeometry x="-310" y="670" width="160" height="86" as="geometry" />
        </mxCell>
        <mxCell id="8t5O6EoHrvJ2qPUYRxW4-128" value="+ field: type" style="text;strokeColor=none;fillColor=none;align=left;verticalAlign=top;spacingLeft=4;spacingRight=4;overflow=hidden;rotatable=0;points=[[0,0.5],[1,0.5]];portConstraint=eastwest;whiteSpace=wrap;html=1;" parent="8t5O6EoHrvJ2qPUYRxW4-127" vertex="1">
          <mxGeometry y="26" width="160" height="26" as="geometry" />
        </mxCell>
        <mxCell id="8t5O6EoHrvJ2qPUYRxW4-129" value="" style="line;strokeWidth=1;fillColor=none;align=left;verticalAlign=middle;spacingTop=-1;spacingLeft=3;spacingRight=3;rotatable=0;labelPosition=right;points=[];portConstraint=eastwest;strokeColor=inherit;" parent="8t5O6EoHrvJ2qPUYRxW4-127" vertex="1">
          <mxGeometry y="52" width="160" height="8" as="geometry" />
        </mxCell>
        <mxCell id="8t5O6EoHrvJ2qPUYRxW4-130" value="+ method(type): type" style="text;strokeColor=none;fillColor=none;align=left;verticalAlign=top;spacingLeft=4;spacingRight=4;overflow=hidden;rotatable=0;points=[[0,0.5],[1,0.5]];portConstraint=eastwest;whiteSpace=wrap;html=1;" parent="8t5O6EoHrvJ2qPUYRxW4-127" vertex="1">
          <mxGeometry y="60" width="160" height="26" as="geometry" />
        </mxCell>
        <mxCell id="8t5O6EoHrvJ2qPUYRxW4-135" value="This line isn&#39;t actually real, it just suggests that&lt;div&gt;procedures can have multiple subsystems*&lt;/div&gt;" style="text;html=1;align=center;verticalAlign=middle;resizable=0;points=[];autosize=1;strokeColor=none;fillColor=none;" parent="WIyWlLk6GJQsqaUBKTNV-1" vertex="1">
          <mxGeometry x="340" y="793" width="270" height="40" as="geometry" />
        </mxCell>
        <mxCell id="8t5O6EoHrvJ2qPUYRxW4-137" value="" style="endArrow=open;endFill=1;endSize=12;html=1;rounded=0;entryX=0.5;entryY=0;entryDx=0;entryDy=0;edgeStyle=orthogonalEdgeStyle;exitX=0.567;exitY=1.017;exitDx=0;exitDy=0;exitPerimeter=0;" parent="WIyWlLk6GJQsqaUBKTNV-1" source="8t5O6EoHrvJ2qPUYRxW4-25" target="8t5O6EoHrvJ2qPUYRxW4-141" edge="1">
          <mxGeometry width="160" relative="1" as="geometry">
            <mxPoint x="400" y="530" as="sourcePoint" />
            <mxPoint x="340" y="600" as="targetPoint" />
          </mxGeometry>
        </mxCell>
        <mxCell id="8t5O6EoHrvJ2qPUYRxW4-138" value="*" style="edgeLabel;html=1;align=center;verticalAlign=middle;resizable=0;points=[];" parent="8t5O6EoHrvJ2qPUYRxW4-137" vertex="1" connectable="0">
          <mxGeometry x="0.8983" relative="1" as="geometry">
            <mxPoint as="offset" />
          </mxGeometry>
        </mxCell>
        <mxCell id="8t5O6EoHrvJ2qPUYRxW4-139" value="" style="endArrow=open;endFill=1;endSize=12;html=1;rounded=0;exitX=0.5;exitY=1;exitDx=0;exitDy=0;entryX=0.5;entryY=0;entryDx=0;entryDy=0;edgeStyle=orthogonalEdgeStyle;" parent="WIyWlLk6GJQsqaUBKTNV-1" source="8t5O6EoHrvJ2qPUYRxW4-141" target="8t5O6EoHrvJ2qPUYRxW4-142" edge="1">
          <mxGeometry width="160" relative="1" as="geometry">
            <mxPoint x="325.7800000000002" y="794.364" as="sourcePoint" />
            <mxPoint x="340" y="840" as="targetPoint" />
          </mxGeometry>
        </mxCell>
        <mxCell id="8t5O6EoHrvJ2qPUYRxW4-140" value="*" style="edgeLabel;html=1;align=center;verticalAlign=middle;resizable=0;points=[];" parent="8t5O6EoHrvJ2qPUYRxW4-139" vertex="1" connectable="0">
          <mxGeometry x="0.3662" relative="1" as="geometry">
            <mxPoint as="offset" />
          </mxGeometry>
        </mxCell>
        <mxCell id="8t5O6EoHrvJ2qPUYRxW4-141" value="&lt;p style=&quot;margin:0px;margin-top:4px;text-align:center;&quot;&gt;&lt;i&gt;&amp;lt;&amp;lt;Interface&amp;gt;&amp;gt;&lt;/i&gt;&lt;br&gt;&lt;b&gt;Procedure&lt;/b&gt;&lt;/p&gt;&lt;hr size=&quot;1&quot; style=&quot;border-style:solid;&quot;&gt;&lt;p style=&quot;margin:0px;margin-left:4px;&quot;&gt;-frequency: int (multiple of 10)&lt;br&gt;&lt;/p&gt;&lt;hr size=&quot;1&quot; style=&quot;border-style:solid;&quot;&gt;&lt;p style=&quot;margin:0px;margin-left:4px;&quot;&gt;+toString()&lt;/p&gt;&lt;p style=&quot;margin:0px;margin-left:4px;&quot;&gt;+init()&lt;/p&gt;&lt;p style=&quot;margin:0px;margin-left:4px;&quot;&gt;+execute()&lt;/p&gt;&lt;p style=&quot;margin:0px;margin-left:4px;&quot;&gt;+end()&lt;/p&gt;&lt;p style=&quot;margin:0px;margin-left:4px;&quot;&gt;+isFinished() : bool&lt;/p&gt;" style="verticalAlign=top;align=left;overflow=fill;html=1;whiteSpace=wrap;" parent="WIyWlLk6GJQsqaUBKTNV-1" vertex="1">
          <mxGeometry x="270" y="590" width="190" height="150" as="geometry" />
        </mxCell>
        <mxCell id="8t5O6EoHrvJ2qPUYRxW4-142" value="&lt;p style=&quot;margin:0px;margin-top:4px;text-align:center;&quot;&gt;&lt;i&gt;&amp;lt;&amp;lt;Interface&amp;gt;&amp;gt;&lt;/i&gt;&lt;br&gt;&lt;b&gt;Subsystem&lt;/b&gt;&lt;/p&gt;&lt;hr size=&quot;1&quot; style=&quot;border-style:solid;&quot;&gt;&lt;p style=&quot;margin:0px;margin-left:4px;&quot;&gt;+ field1: Type&lt;br&gt;&lt;/p&gt;&lt;hr size=&quot;1&quot; style=&quot;border-style:solid;&quot;&gt;&lt;p style=&quot;margin:0px;margin-left:4px;&quot;&gt;+toString()&lt;/p&gt;" style="verticalAlign=top;align=left;overflow=fill;html=1;whiteSpace=wrap;" parent="WIyWlLk6GJQsqaUBKTNV-1" vertex="1">
          <mxGeometry x="245" y="840" width="190" height="97" as="geometry" />
        </mxCell>
        <mxCell id="8t5O6EoHrvJ2qPUYRxW4-147" value="IMUProcedure" style="swimlane;fontStyle=1;align=center;verticalAlign=top;childLayout=stackLayout;horizontal=1;startSize=26;horizontalStack=0;resizeParent=1;resizeParentMax=0;resizeLast=0;collapsible=1;marginBottom=0;whiteSpace=wrap;html=1;" parent="WIyWlLk6GJQsqaUBKTNV-1" vertex="1">
          <mxGeometry x="150" y="416" width="160" height="86" as="geometry" />
        </mxCell>
        <mxCell id="8t5O6EoHrvJ2qPUYRxW4-148" value="------" style="text;strokeColor=none;fillColor=none;align=left;verticalAlign=top;spacingLeft=4;spacingRight=4;overflow=hidden;rotatable=0;points=[[0,0.5],[1,0.5]];portConstraint=eastwest;whiteSpace=wrap;html=1;" parent="8t5O6EoHrvJ2qPUYRxW4-147" vertex="1">
          <mxGeometry y="26" width="160" height="26" as="geometry" />
        </mxCell>
        <mxCell id="8t5O6EoHrvJ2qPUYRxW4-149" value="" style="line;strokeWidth=1;fillColor=none;align=left;verticalAlign=middle;spacingTop=-1;spacingLeft=3;spacingRight=3;rotatable=0;labelPosition=right;points=[];portConstraint=eastwest;strokeColor=inherit;" parent="8t5O6EoHrvJ2qPUYRxW4-147" vertex="1">
          <mxGeometry y="52" width="160" height="8" as="geometry" />
        </mxCell>
        <mxCell id="8t5O6EoHrvJ2qPUYRxW4-150" value="------" style="text;strokeColor=none;fillColor=none;align=left;verticalAlign=top;spacingLeft=4;spacingRight=4;overflow=hidden;rotatable=0;points=[[0,0.5],[1,0.5]];portConstraint=eastwest;whiteSpace=wrap;html=1;" parent="8t5O6EoHrvJ2qPUYRxW4-147" vertex="1">
          <mxGeometry y="60" width="160" height="26" as="geometry" />
        </mxCell>
        <mxCell id="8t5O6EoHrvJ2qPUYRxW4-153" value="" style="endArrow=block;endSize=16;endFill=0;html=1;rounded=0;edgeStyle=orthogonalEdgeStyle;entryX=0;entryY=0.142;entryDx=0;entryDy=0;entryPerimeter=0;exitX=0.899;exitY=1.013;exitDx=0;exitDy=0;exitPerimeter=0;dashed=1;" parent="WIyWlLk6GJQsqaUBKTNV-1" source="8t5O6EoHrvJ2qPUYRxW4-150" target="8t5O6EoHrvJ2qPUYRxW4-141" edge="1">
          <mxGeometry width="160" relative="1" as="geometry">
            <mxPoint x="10" y="617" as="sourcePoint" />
            <mxPoint x="170" y="617" as="targetPoint" />
            <Array as="points">
              <mxPoint x="294" y="546" />
              <mxPoint x="240" y="546" />
              <mxPoint x="240" y="611" />
            </Array>
          </mxGeometry>
        </mxCell>
        <mxCell id="8t5O6EoHrvJ2qPUYRxW4-155" value="" style="endArrow=open;endFill=1;endSize=12;html=1;rounded=0;exitX=0.394;exitY=1.038;exitDx=0;exitDy=0;exitPerimeter=0;edgeStyle=orthogonalEdgeStyle;entryX=0.5;entryY=0;entryDx=0;entryDy=0;" parent="WIyWlLk6GJQsqaUBKTNV-1" source="8t5O6EoHrvJ2qPUYRxW4-150" target="8t5O6EoHrvJ2qPUYRxW4-156" edge="1">
          <mxGeometry width="160" relative="1" as="geometry">
            <mxPoint x="20" y="651" as="sourcePoint" />
            <mxPoint x="20" y="701" as="targetPoint" />
          </mxGeometry>
        </mxCell>
        <mxCell id="8t5O6EoHrvJ2qPUYRxW4-156" value="IMUSubsystem" style="swimlane;fontStyle=1;align=center;verticalAlign=top;childLayout=stackLayout;horizontal=1;startSize=26;horizontalStack=0;resizeParent=1;resizeParentMax=0;resizeLast=0;collapsible=1;marginBottom=0;whiteSpace=wrap;html=1;" parent="WIyWlLk6GJQsqaUBKTNV-1" vertex="1">
          <mxGeometry y="641" width="160" height="138" as="geometry" />
        </mxCell>
        <mxCell id="8t5O6EoHrvJ2qPUYRxW4-157" value="+ field: type" style="text;strokeColor=none;fillColor=none;align=left;verticalAlign=top;spacingLeft=4;spacingRight=4;overflow=hidden;rotatable=0;points=[[0,0.5],[1,0.5]];portConstraint=eastwest;whiteSpace=wrap;html=1;" parent="8t5O6EoHrvJ2qPUYRxW4-156" vertex="1">
          <mxGeometry y="26" width="160" height="26" as="geometry" />
        </mxCell>
        <mxCell id="8t5O6EoHrvJ2qPUYRxW4-158" value="" style="line;strokeWidth=1;fillColor=none;align=left;verticalAlign=middle;spacingTop=-1;spacingLeft=3;spacingRight=3;rotatable=0;labelPosition=right;points=[];portConstraint=eastwest;strokeColor=inherit;" parent="8t5O6EoHrvJ2qPUYRxW4-156" vertex="1">
          <mxGeometry y="52" width="160" height="8" as="geometry" />
        </mxCell>
        <mxCell id="8t5O6EoHrvJ2qPUYRxW4-159" value="+getRotationX() : double" style="text;strokeColor=none;fillColor=none;align=left;verticalAlign=top;spacingLeft=4;spacingRight=4;overflow=hidden;rotatable=0;points=[[0,0.5],[1,0.5]];portConstraint=eastwest;whiteSpace=wrap;html=1;" parent="8t5O6EoHrvJ2qPUYRxW4-156" vertex="1">
          <mxGeometry y="60" width="160" height="26" as="geometry" />
        </mxCell>
        <mxCell id="8t5O6EoHrvJ2qPUYRxW4-160" value="+getRotationY() : double" style="text;strokeColor=none;fillColor=none;align=left;verticalAlign=top;spacingLeft=4;spacingRight=4;overflow=hidden;rotatable=0;points=[[0,0.5],[1,0.5]];portConstraint=eastwest;whiteSpace=wrap;html=1;" parent="8t5O6EoHrvJ2qPUYRxW4-156" vertex="1">
          <mxGeometry y="86" width="160" height="26" as="geometry" />
        </mxCell>
        <mxCell id="8t5O6EoHrvJ2qPUYRxW4-161" value="+getRotationZ() : double" style="text;strokeColor=none;fillColor=none;align=left;verticalAlign=top;spacingLeft=4;spacingRight=4;overflow=hidden;rotatable=0;points=[[0,0.5],[1,0.5]];portConstraint=eastwest;whiteSpace=wrap;html=1;" parent="8t5O6EoHrvJ2qPUYRxW4-156" vertex="1">
          <mxGeometry y="112" width="160" height="26" as="geometry" />
        </mxCell>
        <mxCell id="8t5O6EoHrvJ2qPUYRxW4-162" value="" style="endArrow=block;endSize=16;endFill=0;html=1;rounded=0;edgeStyle=orthogonalEdgeStyle;entryX=0;entryY=0.25;entryDx=0;entryDy=0;exitX=0.831;exitY=0.962;exitDx=0;exitDy=0;exitPerimeter=0;dashed=1;" parent="WIyWlLk6GJQsqaUBKTNV-1" source="8t5O6EoHrvJ2qPUYRxW4-161" target="8t5O6EoHrvJ2qPUYRxW4-142" edge="1">
          <mxGeometry width="160" relative="1" as="geometry">
            <mxPoint x="30" y="920" as="sourcePoint" />
            <mxPoint x="161" y="961" as="targetPoint" />
          </mxGeometry>
        </mxCell>
        <mxCell id="8t5O6EoHrvJ2qPUYRxW4-163" value="" style="endArrow=open;endFill=1;endSize=12;html=1;rounded=0;exitX=0.896;exitY=1;exitDx=0;exitDy=0;exitPerimeter=0;edgeStyle=orthogonalEdgeStyle;entryX=0.875;entryY=0;entryDx=0;entryDy=0;entryPerimeter=0;" parent="WIyWlLk6GJQsqaUBKTNV-1" source="8t5O6EoHrvJ2qPUYRxW4-10" target="8t5O6EoHrvJ2qPUYRxW4-147" edge="1">
          <mxGeometry width="160" relative="1" as="geometry">
            <mxPoint x="-90" y="367" as="sourcePoint" />
            <mxPoint x="-63" y="489" as="targetPoint" />
          </mxGeometry>
        </mxCell>
        <mxCell id="8t5O6EoHrvJ2qPUYRxW4-165" value="" style="endArrow=open;endFill=1;endSize=12;html=1;rounded=0;edgeStyle=orthogonalEdgeStyle;entryX=0.758;entryY=1;entryDx=0;entryDy=0;entryPerimeter=0;exitX=0.235;exitY=1;exitDx=0;exitDy=0;exitPerimeter=0;" parent="WIyWlLk6GJQsqaUBKTNV-1" source="8t5O6EoHrvJ2qPUYRxW4-150" target="8t5O6EoHrvJ2qPUYRxW4-61" edge="1">
          <mxGeometry width="160" relative="1" as="geometry">
            <mxPoint x="187" y="510" as="sourcePoint" />
            <mxPoint x="-73" y="666" as="targetPoint" />
            <Array as="points">
              <mxPoint x="188" y="530" />
              <mxPoint x="67" y="530" />
              <mxPoint x="67" y="621" />
              <mxPoint x="-146" y="621" />
            </Array>
          </mxGeometry>
        </mxCell>
        <mxCell id="8t5O6EoHrvJ2qPUYRxW4-166" value="" style="endArrow=open;endFill=1;endSize=12;html=1;rounded=0;edgeStyle=orthogonalEdgeStyle;entryX=0.466;entryY=0.008;entryDx=0;entryDy=0;entryPerimeter=0;exitX=0.509;exitY=1.003;exitDx=0;exitDy=0;exitPerimeter=0;" parent="WIyWlLk6GJQsqaUBKTNV-1" source="8t5O6EoHrvJ2qPUYRxW4-161" target="8t5O6EoHrvJ2qPUYRxW4-121" edge="1">
          <mxGeometry width="160" relative="1" as="geometry">
            <mxPoint x="100" y="810" as="sourcePoint" />
            <mxPoint x="-40" y="825" as="targetPoint" />
          </mxGeometry>
        </mxCell>
        <mxCell id="8t5O6EoHrvJ2qPUYRxW4-168" value="" style="endArrow=open;endFill=1;endSize=12;html=1;rounded=0;edgeStyle=orthogonalEdgeStyle;entryX=0.419;entryY=0.985;entryDx=0;entryDy=0;entryPerimeter=0;exitX=0.498;exitY=0.969;exitDx=0;exitDy=0;exitPerimeter=0;" parent="WIyWlLk6GJQsqaUBKTNV-1" source="8t5O6EoHrvJ2qPUYRxW4-124" target="8t5O6EoHrvJ2qPUYRxW4-45" edge="1">
          <mxGeometry width="160" relative="1" as="geometry">
            <mxPoint x="-134" y="870" as="sourcePoint" />
            <mxPoint x="-210" y="943" as="targetPoint" />
            <Array as="points">
              <mxPoint x="10" y="980" />
              <mxPoint x="-519" y="980" />
            </Array>
          </mxGeometry>
        </mxCell>
        <mxCell id="8t5O6EoHrvJ2qPUYRxW4-169" value="" style="endArrow=open;endFill=1;endSize=12;html=1;rounded=0;edgeStyle=orthogonalEdgeStyle;entryX=0.584;entryY=1.012;entryDx=0;entryDy=0;entryPerimeter=0;exitX=0.447;exitY=1.009;exitDx=0;exitDy=0;exitPerimeter=0;" parent="WIyWlLk6GJQsqaUBKTNV-1" source="8t5O6EoHrvJ2qPUYRxW4-130" target="8t5O6EoHrvJ2qPUYRxW4-45" edge="1">
          <mxGeometry width="160" relative="1" as="geometry">
            <mxPoint x="-240" y="760" as="sourcePoint" />
            <mxPoint x="-460" y="520" as="targetPoint" />
            <Array as="points">
              <mxPoint x="-238" y="790" />
              <mxPoint x="-480" y="790" />
            </Array>
          </mxGeometry>
        </mxCell>
      </root>
    </mxGraphModel>
  </diagram>
</mxfile>
